<?xml version="1.0" encoding="UTF-8" standalone="no"?>
<!-- Created with Inkscape (http://www.inkscape.org/) -->

<svg
   xmlns:dc="http://purl.org/dc/elements/1.1/"
   xmlns:cc="http://creativecommons.org/ns#"
   xmlns:rdf="http://www.w3.org/1999/02/22-rdf-syntax-ns#"
   xmlns:svg="http://www.w3.org/2000/svg"
   xmlns="http://www.w3.org/2000/svg"
   xmlns:xlink="http://www.w3.org/1999/xlink"
   xmlns:sodipodi="http://sodipodi.sourceforge.net/DTD/sodipodi-0.dtd"
   xmlns:inkscape="http://www.inkscape.org/namespaces/inkscape"
   width="1031.25"
   height="1593.75"
   id="svg1901"
   sodipodi:version="0.32"
   inkscape:version="0.48+devel r13400"
   sodipodi:docname="Open-Hatch-Event-Flyer.svg"
   version="1.1"
   viewBox="0 0 1031.25 1593.75"
   enable-background="new"
   inkscape:export-filename="C:\Users\Ilmari\Documents\OpenHatch\Open-Hatch-Event-Flyer_vector.png"
   inkscape:export-xdpi="60"
   inkscape:export-ydpi="60">
  <defs
     id="defs1903">
    <linearGradient
       inkscape:collect="always"
       id="linearGradient4412">
      <stop
         style="stop-color:#00007f;stop-opacity:1;"
         offset="0"
         id="stop4414" />
      <stop
         id="stop4420"
         offset="0.58395791"
         style="stop-color:#004ed2;stop-opacity:1" />
      <stop
         style="stop-color:#38baff;stop-opacity:1"
         offset="0.87215906"
         id="stop4422" />
      <stop
         style="stop-color:#ebffff;stop-opacity:1"
         offset="1"
         id="stop4416" />
    </linearGradient>
    <clipPath
       clipPathUnits="userSpaceOnUse"
       id="clipPath16">
      <path
         d="M 0,600 800,600 800,0 0,0 0,600 Z"
         id="path18" />
    </clipPath>
    <clipPath
       clipPathUnits="userSpaceOnUse"
       id="clipPath28">
      <path
         d="m 249.586,592 519.415,0 0,-519.415 -519.415,0 0,519.415 z"
         id="path30" />
    </clipPath>
    <clipPath
       clipPathUnits="userSpaceOnUse"
       id="clipPath44">
      <path
         d="m 8.9458,493.377 324.7992,0 0,-324.799 -324.7992,0 0,324.799 z"
         id="path46" />
    </clipPath>
    <clipPath
       clipPathUnits="userSpaceOnUse"
       id="clipPath16-4">
      <path
         d="M 0,600 800,600 800,0 0,0 0,600 Z"
         id="path18-0" />
    </clipPath>
    <clipPath
       clipPathUnits="userSpaceOnUse"
       id="clipPath28-7">
      <path
         d="m 249.586,592 519.415,0 0,-519.415 -519.415,0 0,519.415 z"
         id="path30-3" />
    </clipPath>
    <clipPath
       clipPathUnits="userSpaceOnUse"
       id="clipPath44-0">
      <path
         d="m 8.9458,493.377 324.7992,0 0,-324.799 -324.7992,0 0,324.799 z"
         id="path46-9" />
    </clipPath>
    <linearGradient
       inkscape:collect="always"
       xlink:href="#linearGradient4412"
       id="linearGradient4418"
       x1="508.57141"
       y1="1.1606934"
       x2="508.57141"
       y2="1478.3036"
       gradientUnits="userSpaceOnUse" />
    <filter
       style="color-interpolation-filters:sRGB;"
       inkscape:label="Feather"
       id="filter4468">
      <feGaussianBlur
         stdDeviation="14.0711"
         result="blur"
         id="feGaussianBlur4470" />
      <feComposite
         in="SourceGraphic"
         in2="blur"
         operator="atop"
         result="composite1"
         id="feComposite4472" />
      <feComposite
         in2="composite1"
         operator="in"
         result="composite2"
         id="feComposite4474" />
      <feComposite
         in2="composite2"
         operator="in"
         result="composite3"
         id="feComposite4476" />
    </filter>
    <filter
       style="color-interpolation-filters:sRGB;"
       inkscape:label="Feather"
       id="filter4478">
      <feGaussianBlur
         stdDeviation="14.0711"
         result="blur"
         id="feGaussianBlur4480" />
      <feComposite
         in="SourceGraphic"
         in2="blur"
         operator="atop"
         result="composite1"
         id="feComposite4482" />
      <feComposite
         in2="composite1"
         operator="in"
         result="composite2"
         id="feComposite4484" />
      <feComposite
         in2="composite2"
         operator="in"
         result="composite3"
         id="feComposite4486" />
    </filter>
    <filter
       style="color-interpolation-filters:sRGB;"
       inkscape:label="Feather"
       id="filter4488">
      <feGaussianBlur
         stdDeviation="14.0711"
         result="blur"
         id="feGaussianBlur4490" />
      <feComposite
         in="SourceGraphic"
         in2="blur"
         operator="atop"
         result="composite1"
         id="feComposite4492" />
      <feComposite
         in2="composite1"
         operator="in"
         result="composite2"
         id="feComposite4494" />
      <feComposite
         in2="composite2"
         operator="in"
         result="composite3"
         id="feComposite4496" />
    </filter>
    <clipPath
       clipPathUnits="userSpaceOnUse"
       id="clipPath4511">
      <path
         sodipodi:nodetypes="cccssscc"
         inkscape:connector-curvature="0"
         id="path4513"
         d="m 1031.25,1593.75 -1031.250010825195,0 0,-184.2857 c 0,0 51.428581825195,-15.7143 112.857150825195,-15.7143 132.13925,0 231.46256,13.9583 348.57143,25.7143 55.01281,5.5225 125.98952,7.2894 199.06698,14.1888 179.22033,16.9204 371.07585,39.3825 371.07585,39.3825 z"
         style="fill:#009200;fill-opacity:1;fill-rule:evenodd;stroke:none;stroke-width:1px;stroke-linecap:butt;stroke-linejoin:miter;stroke-opacity:1" />
    </clipPath>
  </defs>
  <sodipodi:namedview
     id="base"
     pagecolor="#ffffff"
     bordercolor="#666666"
     borderopacity="1.0"
     inkscape:pageopacity="0.0"
     inkscape:pageshadow="2"
     inkscape:zoom="0.49497475"
     inkscape:cx="-91.830387"
     inkscape:cy="791.14791"
     inkscape:document-units="px"
     inkscape:current-layer="layer2"
     inkscape:window-width="1920"
     inkscape:window-height="1033"
     inkscape:window-x="-4"
     inkscape:window-y="-4"
     showgrid="false"
     fit-margin-top="0"
     fit-margin-left="0"
     fit-margin-right="0"
     fit-margin-bottom="0"
     inkscape:window-maximized="1" />
  <metadata
     id="metadata1906">
    <rdf:RDF>
      <cc:Work
         rdf:about="">
        <dc:format>image/svg+xml</dc:format>
        <dc:type
           rdf:resource="http://purl.org/dc/dcmitype/StillImage" />
        <dc:title />
      </cc:Work>
    </rdf:RDF>
  </metadata>
  <g
     inkscape:groupmode="layer"
     id="layer4"
     inkscape:label="background gradient"
     style="display:inline">
    <rect
       style="fill:url(#linearGradient4418);fill-opacity:1;stroke:none;stroke-width:0.1;stroke-miterlimit:4;stroke-dasharray:none;stroke-opacity:1"
       id="rect4410"
       width="1031.25"
       height="1479.4642"
       x="-1.0825195e-005"
       y="-2.9492187e-006" />
  </g>
  <g
     inkscape:groupmode="layer"
     id="layer5"
     inkscape:label="ground"
     style="display:inline;opacity:1"
     sodipodi:insensitive="true">
    <path
       style="fill:#009200;fill-opacity:1;fill-rule:evenodd;stroke:none;stroke-width:1px;stroke-linecap:butt;stroke-linejoin:miter;stroke-opacity:1"
       d="m 1031.25,1593.75 -1031.250010825195,0 0,-184.2857 c 0,0 51.428581825195,-15.7143 112.857150825195,-15.7143 132.13925,0 231.46256,13.9583 348.57143,25.7143 55.01281,5.5225 125.98952,7.2894 199.06698,14.1888 179.22033,16.9204 371.07585,39.3825 371.07585,39.3825 z"
       id="path4425"
       inkscape:connector-curvature="0"
       sodipodi:nodetypes="cccssscc" />
  </g>
  <g
     inkscape:groupmode="layer"
     id="layer6"
     inkscape:label="ground highlight"
     style="display:inline;opacity:0.693">
    <path
       style="fill:#7dd500;fill-opacity:1;fill-rule:evenodd;stroke:none;stroke-width:1px;stroke-linecap:butt;stroke-linejoin:miter;stroke-opacity:1;filter:url(#filter4488)"
       d="m 401.85931,1377.6296 c -46.35626,7.8492 -82.95256,-3.1814 -116.14503,8.9775 -33.55533,12.2918 -152.03193,-5.7411 -217.142843,34.2857 167.943213,15.5891 813.219163,86.2491 914.583103,96.1324 -14.76944,-16.9314 -101.41373,-48.1247 -115.71161,-62.1973 -36.21536,-35.6447 -74.27889,-55.1235 -141.31023,-73.4689 -41.80041,-11.4401 -107.43391,-13.0567 -156.58808,-15.8517 -55.9506,-3.1814 -114.77239,3.163 -167.68531,12.1223 z"
       id="path4428"
       inkscape:connector-curvature="0"
       sodipodi:nodetypes="ssccssss"
       clip-path="url(#clipPath4511)" />
    <path
       style="fill:#7dd500;fill-opacity:1;fill-rule:evenodd;stroke:none;stroke-width:1px;stroke-linecap:butt;stroke-linejoin:miter;stroke-opacity:1;filter:url(#filter4488)"
       d="m 47.142856,1430.8929 c 0,0 94.285714,-24.8775 154.285714,-19.1632 60,5.7143 262.85714,11.9188 312.85713,20.4902 24.092,4.1301 268.56475,45.6774 344.68869,62.5714 75.14154,16.6761 151.02561,44.673 151.02561,44.673 0,0 -14.49191,15.1869 -95.69516,15.4709 -63.38417,0.2217 -223.09011,-24.2184 -250.01914,-25.4709 -61.42857,-2.8571 -148.57142,-12.8571 -191.42856,-12.8571 C 430,1516.6072 230,1489.4643 171.42857,1486.6071 112.85714,1483.75 27.142857,1446.8943 17.142857,1446.8943 c -10,0 29.999999,-16.0014 29.999999,-16.0014 z"
       id="path4194"
       inkscape:connector-curvature="0"
       sodipodi:nodetypes="cssscsssssc" />
    <path
       style="fill:#7dd500;fill-opacity:1;fill-rule:evenodd;stroke:none;stroke-width:1px;stroke-linecap:butt;stroke-linejoin:miter;stroke-opacity:1;filter:url(#filter4488)"
       d="m 14.285715,1478.0357 c 0,0 91.918775,-12.7556 195.122545,-16.306 97.46261,-3.3529 425.19193,37.944 482.61204,46.2046 158.96726,22.8695 217.97968,102.9586 217.97968,102.9586 0,0 -479.99999,22.8571 -555.71427,7.1429 C 278.57142,1602.3215 110,1538.0357 81.42857,1529.4643 52.857142,1520.8928 14.285715,1478.0357 14.285715,1478.0357 Z"
       id="path4196"
       inkscape:connector-curvature="0"
       sodipodi:nodetypes="csscssc" />
  </g>
  <g
     style="display:none;opacity:0.45733786"
     inkscape:label="ground clipping mask"
     id="g4498"
     inkscape:groupmode="layer"
     sodipodi:insensitive="true" />
  <g
     inkscape:groupmode="layer"
     id="layer3"
     inkscape:label="clouds"
     style="display:inline;opacity:1">
    <path
       style="fill:#ffffff;fill-rule:evenodd;stroke:none;stroke-width:0.1;stroke-linecap:butt;stroke-linejoin:miter;stroke-miterlimit:4;stroke-dasharray:none;stroke-opacity:1;fill-opacity:1;opacity:1"
       d="m 621.99184,530.89286 c -8.90436,0 -18.7363,-2.18764 -25.51307,-7.91652 -4.17578,-3.53008 -7.5502,-8.40472 -7.5502,-14.94062 0,-5.50392 2.53763,-10.48939 6.8604,-14.55555 4.00754,-3.76964 9.48326,-6.99542 16.02584,-8.61912 12.25714,-3.04191 20.68519,-1.82533 20.68519,-1.82533 2.86197,-9.92784 8.56699,-17.11269 15.4797,-21.7424 8.27206,-5.50211 20.93332,-7.48265 29.94243,-6.51483 13.37232,-32.25146 41.45885,-44.63601 71.72072,-43.88524 33.91883,1.18122 69.03748,20.09265 69.28572,56.42858 0,0 3.92857,-0.35715 8.92857,0.71428 5,1.07143 8.54976,2.98341 8.54976,2.98341 10.76402,-11.8362 23.27326,-17.58457 38.30467,-15.94515 11.85694,1.29319 24.65879,4.94584 32.78842,22.96174 0,0 12.85715,-4.64286 27.5,-1.78571 14.64286,2.85714 23.21429,11.42857 23.21429,11.42857 11.91268,-1.82064 26.24839,-1.30922 36.42857,6.42861 5.94795,4.52096 9.07655,10.84056 9.07655,17.98341 0,7.14286 -3.0484,11.44652 -7.05996,14.47327 -4.08195,3.07986 -7.2326,4.32903 -19.98577,4.32903 -97.21478,-9e-4 -242.2804,-4.3e-4 -354.68183,-4.3e-4 z"
       id="path4211"
       inkscape:connector-curvature="0"
       sodipodi:nodetypes="csssscccccscscscssscc" />
    <path
       style="display:inline;opacity:1;fill:#ffffff;fill-opacity:1;fill-rule:evenodd;stroke:none;stroke-width:0.1;stroke-linecap:butt;stroke-linejoin:miter;stroke-miterlimit:4;stroke-dasharray:none;stroke-opacity:1"
       d="m 734.81095,238.8703 c -10.45183,0 -21.99243,-2.56782 -29.94692,-9.2923 -4.90149,-4.14357 -8.86233,-9.86535 -8.86233,-17.53711 0,-6.46043 2.97864,-12.31231 8.05266,-17.08512 4.70399,-4.42475 11.13131,-8.21114 18.81091,-10.11702 14.38728,-3.57055 24.28001,-2.14254 24.28001,-2.14254 3.35935,-11.65317 10.05583,-20.08665 18.16988,-25.52095 9.70964,-6.4583 24.57126,-8.78304 35.14604,-7.64702 15.69625,-37.85635 48.66387,-52.393173 84.18486,-51.511929 39.8135,1.386496 81.03531,23.584489 81.32669,66.235139 0,0 4.61131,-0.41922 10.48024,0.83841 5.86894,1.25763 10.0356,3.5019 10.0356,3.5019 12.63475,-13.89319 27.31781,-20.64054 44.96151,-18.71623 13.9175,1.51795 28.9441,5.80538 38.4867,26.9522 0,0 15.0915,-5.44973 32.279,-2.09604 17.1876,3.35367 27.2488,13.41471 27.2488,13.41471 13.9828,-2.13704 30.81,-1.53674 42.7592,7.54582 6.9817,5.30664 10.654,12.72451 10.654,21.10869 0,8.3842 -3.578,13.43579 -8.2869,16.98854 -4.7912,3.6151 -8.4896,5.08137 -23.459,5.08137 -114.1095,-9.9e-4 -284.3856,-5.2e-4 -416.32095,-5.2e-4 z"
       id="path4211-9"
       inkscape:connector-curvature="0"
       sodipodi:nodetypes="csssscccccscscscssscc" />
    <path
       style="display:inline;opacity:1;fill:#ffffff;fill-opacity:1;fill-rule:evenodd;stroke:none;stroke-width:0.1;stroke-linecap:butt;stroke-linejoin:miter;stroke-miterlimit:4;stroke-dasharray:none;stroke-opacity:1"
       d="m 961.26551,389.38307 c -9.55259,0 -20.10028,-2.34689 -27.3704,-8.49283 -4.47979,-3.78707 -8.09985,-9.01656 -8.09985,-16.02828 0,-5.90459 2.72237,-11.25299 7.35984,-15.61518 4.29928,-4.04405 10.17362,-7.50467 17.19249,-9.24658 13.14945,-3.26335 22.19105,-1.95821 22.19105,-1.95821 3.07032,-10.65058 9.19066,-18.35847 16.60661,-23.32522 8.87425,-5.90265 22.45725,-8.02738 32.12205,-6.98909 14.346,-34.59935 44.4771,-47.88547 76.942,-47.08004 36.3881,1.2672 74.0633,21.55536 74.3297,60.53652 0,0 4.2145,-0.38316 9.5785,0.76626 5.364,1.14943 9.1722,3.20062 9.1722,3.20062 11.5478,-12.69787 24.9675,-18.86471 41.0933,-17.10595 12.72,1.38734 26.4539,5.3059 35.1754,24.63332 0,0 13.7931,-4.98085 29.5018,-1.91569 15.7089,3.06513 24.9045,12.26055 24.9045,12.26055 12.7797,-1.95317 28.1592,-1.40453 39.0803,6.8966 6.381,4.85009 9.7374,11.62974 9.7374,19.29258 0,7.66285 -3.2702,12.27982 -7.5739,15.52691 -4.379,3.30408 -7.7593,4.64419 -21.4408,4.64419 -104.2919,-9.1e-4 -259.9181,-4.8e-4 -380.50219,-4.8e-4 z"
       id="path4211-9-0"
       inkscape:connector-curvature="0"
       sodipodi:nodetypes="csssscccccscscscssscc" />
    <path
       style="display:inline;opacity:1;fill:#ffffff;fill-opacity:1;fill-rule:evenodd;stroke:none;stroke-width:0.1;stroke-linecap:butt;stroke-linejoin:miter;stroke-miterlimit:4;stroke-dasharray:none;stroke-opacity:1"
       d="m -2.2084508,324.41481 c -13.2180272,0 -27.8129802,-3.24747 -37.8727192,-11.75163 -6.198724,-5.24022 -11.207846,-12.47634 -11.207846,-22.17851 0,-8.17026 3.766971,-15.57091 10.183889,-21.60689 5.948954,-5.5958 14.07734,-10.38431 23.789434,-12.7946 18.1950398,-4.51554 30.706,-2.70959 30.706,-2.70959 4.248438,-14.73733 12.717219,-25.4028 22.978747,-32.27536 12.279407,-8.16758 31.074326,-11.10757 44.447844,-9.67088 19.850442,-47.87549 61.543342,-66.25966 106.465362,-65.14517 50.35059,1.75342 102.48224,29.82641 102.85073,83.76504 0,0 5.83176,-0.53019 13.25395,1.06029 7.42222,1.59048 12.69165,4.42873 12.69165,4.42873 15.97867,-17.57018 34.54777,-26.10331 56.8611,-23.6697 17.60091,1.91969 36.60448,7.34183 48.67263,34.08542 0,0 19.08564,-6.89208 40.82201,-2.65079 21.7365,4.24125 34.46051,16.96509 34.46051,16.96509 17.6835,-2.70265 38.96422,-1.94348 54.07592,9.54287 8.82948,6.7111 13.4737,16.0922 13.4737,26.69534 0,10.60318 -4.52496,16.99173 -10.48014,21.48474 -6.05925,4.5719 -10.73647,6.42623 -29.66766,6.42623 -144.30991,-9.8e-4 -359.65154,-6.3e-4 -526.5051108,-6.3e-4 z"
       id="path4211-9-4"
       inkscape:connector-curvature="0"
       sodipodi:nodetypes="csssscccccscscscssscc" />
    <path
       style="display:inline;opacity:1;fill:#ffffff;fill-opacity:1;fill-rule:evenodd;stroke:none;stroke-width:0.1;stroke-linecap:butt;stroke-linejoin:miter;stroke-miterlimit:4;stroke-dasharray:none;stroke-opacity:1"
       d="m -315.10307,135.07688 c -15.11366,0 -31.80168,-3.71314 -43.30407,-13.43691 -7.0877,-5.99172 -12.81519,-14.26557 -12.81519,-25.359143 0,-9.341973 4.30721,-17.803957 11.64437,-24.705569 6.80209,-6.398312 16.09618,-11.873539 27.20109,-14.629495 20.80441,-5.163116 35.10957,-3.098173 35.10957,-3.098173 4.85773,-16.850811 14.54101,-29.04586 26.27416,-36.904011 14.04041,-9.3388821 35.53074,-12.7005215 50.82216,-11.0578047 22.69722,-54.7413443 70.36932,-75.7619993 121.73367,-74.4876953 57.571439,2.004914 117.179336,34.103835 117.600677,95.777868 0,0 6.668084,-0.606202 15.154726,1.212366 8.486655,1.81857 14.511771,5.063848 14.511771,5.063848 18.270207,-20.089944 39.50232,-29.846802 65.015606,-27.0641944 20.12509,2.194997 41.85397,8.3947414 55.65285,38.9736364 0,0 21.82274,-7.880463 46.67632,-3.030934 24.85377,4.849502 39.40255,19.398049 39.40255,19.398049 20.21951,-3.09022 44.55212,-2.222169 61.831,10.911466 10.09575,7.673547 15.40599,18.399995 15.40599,30.523756 0,12.1238 -5.17389,19.42852 -11.98311,24.56588 -6.9282,5.22754 -12.27621,7.34782 -33.92236,7.34782 -165.00554,-0.001 -411.22958,-7.6e-4 -602.01178,-7.6e-4 z"
       id="path4211-9-3"
       inkscape:connector-curvature="0"
       sodipodi:nodetypes="csssscccccscscscssscc" />
    <path
       style="display:inline;opacity:1;fill:#ffffff;fill-opacity:1;fill-rule:evenodd;stroke:none;stroke-width:0.1;stroke-linecap:butt;stroke-linejoin:miter;stroke-miterlimit:4;stroke-dasharray:none;stroke-opacity:1"
       d="m 479.95119,18.404749 c -5.61843,0 -11.82214,-1.380345 -16.09811,-4.995124 -2.63482,-2.227397 -4.76399,-5.3031674 -4.76399,-9.4271614 0,-3.47283627 1.60118,-6.6185442 4.32874,-9.184191 2.52865,-2.3785459 5.98369,-4.4139389 10.1119,-5.4384546 7.73396,-1.919368 13.05184,-1.151734 13.05184,-1.151734 1.80584,-6.26422 5.40556,-10.797679 9.76731,-13.718915 5.21947,-3.471692 13.20841,-4.721368 18.89293,-4.110695 8.43761,-20.349874 26.15951,-28.164214 45.254,-27.690494 21.40195,0.745314 43.56094,12.677957 43.71757,35.60503 0,0 2.47884,-0.225353 5.63371,0.450692 3.15487,0.676046 5.39468,1.882464 5.39468,1.882464 6.79188,-7.468354 14.68483,-11.095426 24.16929,-10.061004 7.48142,0.815983 15.55904,3.120712 20.68873,14.488291 0,0 8.11251,-2.92953 17.35173,-1.126736 9.23929,1.802782 14.64774,7.2111451 14.64774,7.2111451 7.51652,-1.1487761 16.56206,-0.8260826 22.98541,4.0562935 3.75305,2.852609 5.72712,6.8401221 5.72712,11.3470811 0,4.5069683 -1.92337,7.2224773 -4.45467,9.1322753 -2.57554,1.943315 -4.56362,2.731516 -12.61051,2.731516 -61.34013,-5.32e-4 -152.87291,-2.79e-4 -223.79542,-2.79e-4 z"
       id="path4211-9-45"
       inkscape:connector-curvature="0"
       sodipodi:nodetypes="csssscccccscscscssscc" />
    <path
       style="display:inline;opacity:1;fill:#ffffff;fill-opacity:1;fill-rule:evenodd;stroke:none;stroke-width:0.1;stroke-linecap:butt;stroke-linejoin:miter;stroke-miterlimit:4;stroke-dasharray:none;stroke-opacity:1"
       d="m -352.66665,508.32854 c -9.57133,0 -20.1397,-2.35149 -27.42409,-8.50947 -4.48857,-3.7945 -8.11572,-9.03425 -8.11572,-16.05972 0,-5.91617 2.72772,-11.27507 7.37427,-15.6458 4.30771,-4.05198 10.19357,-7.5194 17.2262,-9.26473 13.17526,-3.26975 22.23457,-1.96205 22.23457,-1.96205 3.07635,-10.67146 9.20869,-18.39447 16.63919,-23.37096 8.89166,-5.91422 22.50127,-8.04312 32.1852,-7.0028 14.37394,-34.66719 44.56424,-47.97937 77.09281,-47.17237 36.45946,1.2697 74.20858,21.59764 74.47541,60.65524 0,0 4.22283,-0.38391 9.59734,0.76778 5.37452,1.15167 9.19016,3.20688 9.19016,3.20688 11.57035,-12.72277 25.016456,-18.90169 41.173782,-17.1395 12.745036,1.39008 26.505737,5.31632 35.244431,24.68164 0,0 13.820135,-4.99062 29.559694,-1.91946 15.73965032,3.07115 24.9532597,12.28461 24.9532597,12.28461 12.8048363,-1.95701 28.2144473,-1.40728 39.1569993,6.91012 6.393537,4.8596 9.756468,11.65256 9.756468,19.33041 0,7.67789 -3.276577,12.30391 -7.58878,15.55738 -4.387571,3.31054 -7.774403,4.65328 -21.482725,4.65328 -104.496481,-9e-4 -260.427859,-4.8e-4 -381.248469,-4.8e-4 z"
       id="path4211-9-9"
       inkscape:connector-curvature="0"
       sodipodi:nodetypes="csssscccccscscscssscc" />
  </g>
  <g
     inkscape:groupmode="layer"
     id="layer2"
     inkscape:label="logo as path"
     style="display:inline;opacity:1">
    <g
       transform="matrix(0.82671828,0,0,-0.82671828,445.24832,350.62203)"
       id="g20">
      <path
         inkscape:connector-curvature="0"
         id="path22"
         style="fill:#7fc4ff;fill-opacity:1;fill-rule:nonzero;stroke:none"
         d="m 0,0 c 0,89.69 -72.709,162.399 -162.399,162.399 -89.691,0 -162.4,-72.709 -162.4,-162.399 0,-89.69 72.709,-162.399 162.4,-162.399 C -72.709,-162.399 0,-89.69 0,0" />
    </g>
    <g
       id="g24"
       transform="matrix(0.82671828,0,0,-0.82671828,169.33556,624.24718)">
      <g
         id="g26" />
      <g
         id="g32">
        <g
           style="opacity:0.75"
           id="g34"
           clip-path="url(#clipPath28-7)">
          <g
             id="g36"
             transform="translate(769.001,332.2925)">
            <path
               inkscape:connector-curvature="0"
               id="path38"
               style="fill:#c1e957;fill-opacity:1;fill-rule:nonzero;stroke:none"
               d="m 0,0 c 0,-143.432 -116.275,-259.708 -259.707,-259.708 -143.433,0 -259.708,116.276 -259.708,259.708 0,143.432 116.275,259.708 259.708,259.708 C -116.275,259.708 0,143.432 0,0" />
          </g>
        </g>
      </g>
    </g>
    <g
       id="g40"
       transform="matrix(0.82671828,0,0,-0.82671828,169.33556,624.24718)">
      <g
         id="g42" />
      <g
         id="g48">
        <g
           style="opacity:0.28999299"
           id="g50"
           clip-path="url(#clipPath44-0)">
          <g
             id="g52"
             transform="translate(333.7446,330.9775)">
            <path
               inkscape:connector-curvature="0"
               id="path54"
               style="fill:#7fc4ff;fill-opacity:1;fill-rule:nonzero;stroke:none"
               d="m 0,0 c 0,89.69 -72.709,162.399 -162.399,162.399 -89.691,0 -162.4,-72.709 -162.4,-162.399 0,-89.69 72.709,-162.399 162.4,-162.399 C -72.709,-162.399 0,-89.69 0,0" />
          </g>
        </g>
      </g>
    </g>
    <g
       transform="scale(1.0040372,0.99597899)"
       style="font-variant:normal;font-weight:500;font-stretch:normal;font-size:130.98025513px;font-family:Tuffy;-inkscape-font-specification:Tuffy;writing-mode:lr-tb;fill:#ffffff;fill-opacity:1;fill-rule:nonzero;stroke:none"
       id="text56">
      <path
         d="m 179.97555,354.28455 q 0,-19.51606 10.21646,-29.20859 6.67999,-6.41804 16.37253,-6.41804 14.80077,0 22.00469,14.01489 2.22666,4.45333 3.40548,10.08548 1.17882,5.37019 1.17882,11.52626 0,19.2541 -9.95449,29.33958 -6.81098,6.81097 -16.6345,6.81097 -14.53881,0 -21.74272,-13.8839 -2.48862,-4.71529 -3.66745,-10.47842 -1.17882,-5.63216 -1.17882,-11.78823 z m 9.82352,0 q 0,4.84627 1.04784,9.69254 2.88157,13.62195 11.13332,16.89645 2.22667,0.91687 4.58431,0.91687 10.74038,0 14.93175,-13.88391 1.83373,-6.28705 1.83373,-13.62195 0,-4.84627 -0.91687,-9.43058 -2.88156,-13.49096 -11.39528,-16.76547 -2.09568,-0.78588 -4.45333,-0.78588 -9.69254,0 -14.27685,12.31214 -2.48862,6.68 -2.48862,14.66979 z"
         id="path4202"
         inkscape:connector-curvature="0" />
      <path
         d="m 258.82565,319.96773 -9.69254,0 0,96.00852 9.69254,0 0,-37.85329 q 5.50117,8.51372 10.87136,10.87136 3.14353,1.44078 6.81098,1.44078 l 0.26196,0 q 13.09802,0 19.64704,-14.66979 4.19136,-9.43057 4.19136,-21.61174 0,-6.54901 -1.17882,-12.31214 -3.66745,-17.02743 -15.19371,-21.61174 -3.53647,-1.44079 -7.59685,-1.44079 -10.87136,0 -17.81332,12.57411 l 0,-11.39528 z m 31.95918,34.18584 q 0,15.45567 -6.41803,23.44547 -3.40548,4.19137 -7.72783,4.19137 -7.46588,0 -12.83607,-8.25176 -3.01254,-4.71529 -4.32235,-10.74038 -0.91686,-4.06039 -0.91686,-8.51372 0,-15.97959 9.43058,-23.44546 4.32235,-3.40549 8.6447,-3.40549 7.33489,0 11.39528,10.21646 1.04784,2.61961 1.70274,5.63215 1.04784,5.10823 1.04784,10.87136 z"
         id="path4204"
         inkscape:connector-curvature="0" />
      <path
         d="m 324.18481,349.9622 33.26899,0 q -0.13098,-2.75058 -0.65491,-5.37019 -2.6196,-12.05018 -10.34744,-15.97959 -2.6196,-1.3098 -5.63215,-1.3098 -9.03763,0 -13.8839,10.87136 -2.35765,5.37019 -2.75059,11.78822 z m 0,8.6447 q 0.13098,2.88157 0.78588,5.50117 2.75059,13.22901 10.87136,16.63449 2.35765,1.04785 4.97725,1.04785 7.46588,0 12.96705,-5.23921 1.70274,-1.70275 2.6196,-3.40549 l 8.51372,3.40549 q -4.71529,9.16861 -15.58665,12.5741 -4.19137,1.3098 -8.51372,1.3098 -14.27684,0 -21.74272,-13.62194 -2.6196,-4.84627 -3.92941,-11.00234 -1.17882,-5.50118 -1.17882,-11.52627 0,-19.25409 10.21646,-29.07761 6.81097,-6.54902 16.63449,-6.54902 15.06273,0 21.87371,14.66979 1.83372,4.06039 2.88156,8.77568 1.17882,5.76313 1.17882,12.18116 l 0,4.19137 0,0.13098 -42.56858,0 z"
         id="path4206"
         inkscape:connector-curvature="0" />
      <path
         d="m 393.08043,388.60138 -9.69254,0 0,-68.63365 9.69254,0 0,10.34744 q 7.98979,-11.78823 18.73017,-11.78823 14.66979,0 19.77802,14.53881 0.6549,1.96471 1.17883,4.19137 0.91686,4.32235 0.91686,9.2996 l 0,42.04466 -9.69254,0 0,-42.04466 q 0,-4.19137 -0.78588,-7.72784 -3.14353,-11.00234 -11.39529,-11.52626 -7.07293,0 -13.09802,6.15607 -5.63215,5.63215 -5.63215,12.96705 l 0,42.17564 z"
         id="path4208"
         inkscape:connector-curvature="0" />
    </g>
    <g
       transform="scale(1.0069934,0.99305514)"
       style="font-variant:normal;font-weight:500;font-stretch:normal;font-size:131.36590576px;font-family:Tuffy;-inkscape-font-specification:Tuffy;writing-mode:lr-tb;fill:#555555;fill-opacity:1;fill-rule:nonzero;stroke:none"
       id="text60">
      <path
         d="m 462.96878,389.74554 -9.72108,0 0,-93.26979 9.72108,0 0,34.15514 q 5.64873,-6.83103 9.58971,-9.06425 3.94098,-2.10186 8.67015,-2.10186 15.36981,0 20.49308,14.71299 0.65683,1.83912 1.05093,3.94097 0.91956,4.33508 0.91956,9.45835 l 0,42.16845 -9.72108,0 0,-42.16845 q 0,-4.86054 -0.78819,-8.40742 -2.23322,-10.90337 -11.9543,-10.90337 -7.22513,0 -13.00523,6.30556 -5.25463,5.64874 -5.25463,12.87386 l 0,42.29982 z"
         id="path4191"
         inkscape:connector-curvature="0" />
      <path
         d="m 544.67834,351.12397 q -9.06425,0 -13.66205,7.35649 -2.49595,3.94098 -2.49595,8.53878 0,1.70776 0.39409,3.28415 1.57639,7.88195 8.80152,11.1661 3.15278,1.44503 6.96239,1.44503 7.61922,0 12.21703,-6.69966 3.02142,-4.20371 3.02142,-9.19562 0,-1.57639 -0.3941,-3.28414 -1.57639,-7.48786 -8.27605,-11.03474 -3.15278,-1.57639 -6.5683,-1.57639 z m -0.78819,-8.67015 q 9.06424,0 14.45025,6.83103 0.78819,1.05092 1.18229,1.97048 l 0,-4.86053 q 0,-3.02142 -0.52546,-5.7801 -2.36459,-11.16611 -13.13659,-11.9543 -0.7882,-0.13137 -1.70776,-0.13137 -9.19561,0 -14.45025,4.99191 l -4.99191,-6.5683 q 8.67015,-7.09376 19.44216,-7.09376 12.74249,0 19.70488,9.58971 3.02142,4.20371 4.20371,9.85245 0.7882,3.28414 0.7882,7.09376 l 0,7.88195 0,18.12849 q 0,1.83913 0.26273,3.41552 1.44503,6.56829 7.09376,6.56829 l 0,8.67015 q -11.42883,0 -14.71298,-6.43693 -0.52547,-1.05092 -0.7882,-2.23322 l 0,-0.13136 q -1.97049,4.46644 -7.88195,7.35649 -4.20371,1.97049 -8.93288,1.97049 -12.61113,0 -19.96762,-9.19562 -3.54688,-4.46644 -4.72917,-10.11517 -0.52547,-2.49595 -0.52547,-5.25464 0,-11.29747 9.19562,-18.78532 7.09376,-5.7801 16.02664,-5.7801 z"
         id="path4193"
         inkscape:connector-curvature="0" />
      <path
         d="m 595.25422,329.57996 -9.06425,0 0,-8.67015 9.06425,0 0,-16.02664 9.72107,0 0,16.02664 12.61113,0 0,8.67015 -12.61113,0 0,46.37216 q 0,1.31366 0.26273,2.36459 1.05093,5.12327 7.22513,5.12327 l 4.46644,0 0,8.14469 -4.46644,0 q -13.13659,0 -16.02664,-7.75059 -0.3941,-1.05093 -0.65683,-2.23322 -0.52546,-2.23322 -0.52546,-5.386 l 0,-46.6349 z"
         id="path4195"
         inkscape:connector-curvature="0" />
      <path
         d="m 682.21847,328.52903 -6.43693,6.43693 q -4.59781,-4.5978 -7.61922,-5.64873 -2.75869,-1.05093 -6.43693,-1.05093 -7.35649,0 -13.00523,7.88195 -5.7801,7.75059 -5.7801,19.17943 0,13.39932 7.22513,21.9381 4.9919,5.7801 11.1661,5.7801 8.93288,0 15.23844,-7.75059 l 6.30557,6.30557 q -5.64874,6.04283 -10.90337,8.14468 -4.72918,1.97049 -10.64064,1.97049 -13.66206,-0.13136 -21.80674,-12.87386 -6.43693,-10.11517 -6.43693,-23.51449 0,-16.28938 9.72108,-26.93001 8.14468,-8.80152 18.91669,-8.80152 9.72107,0 16.02664,4.99191 1.83912,1.44502 4.46644,3.94097 z"
         id="path4197"
         inkscape:connector-curvature="0" />
      <path
         d="m 706.65249,389.74554 -9.72107,0 0,-93.26979 9.72107,0 0,34.15514 q 5.64874,-6.83103 9.58971,-9.06425 3.94098,-2.10186 8.67015,-2.10186 15.36982,0 20.49309,14.71299 0.65683,1.83912 1.05092,3.94097 0.91956,4.33508 0.91956,9.45835 l 0,42.16845 -9.72107,0 0,-42.16845 q 0,-4.86054 -0.7882,-8.40742 -2.23322,-10.90337 -11.9543,-10.90337 -7.22512,0 -13.00522,6.30556 -5.25464,5.64874 -5.25464,12.87386 l 0,42.29982 z"
         id="path4199"
         inkscape:connector-curvature="0" />
    </g>
  </g>
</svg>
